<svg width="23" height="23" viewBox="0 0 23 23" fill="none" xmlns="http://www.w3.org/2000/svg">
<path d="M21.3742 4.53005C20.7327 3.88854 19.6925 3.88841 19.051 4.52992L17.8892 5.69173L16.7276 6.85328L15.5658 8.01509L14.4043 9.17664L13.2425 10.3384L12.0809 11.5L10.9191 12.6616L9.75755 13.8234L8.59574 14.9849L7.43419 13.8234L6.27238 12.6616L5.11083 11.5L3.94902 10.3384C3.30754 9.69682 2.26728 9.69683 1.62573 10.3384C0.984199 10.9799 0.984205 12.0202 1.62566 12.6618L2.78747 13.8234L3.94902 14.9849L5.11083 16.1467L6.27238 17.3083L7.43419 18.4701C8.0757 19.1116 9.11579 19.1116 9.75729 18.4701L10.9191 17.3083L12.0809 16.1467L13.2425 14.9849L14.4043 13.8234L15.5658 12.6616L16.7276 11.5L17.8892 10.3384L19.051 9.17664L20.2125 8.01509L21.3743 6.85328C22.0159 6.21177 22.0157 5.17156 21.3742 4.53005Z" fill="white"/>
</svg>
